# WaveFront *.obj file (generated by Autodesk ATF)

mtllib (Nicht gespeichert)_(Nicht gespeichert)_Körper14.mtl

g Körper14

v -0.000250 0.000400 0.000000
v -0.000250 0.000178 0.000000
v -0.000250 0.000178 0.000200
v -0.000250 0.000400 0.000200
v 0.000331 0.000400 0.000000
v 0.000331 0.000400 0.000200
v 0.000331 0.000178 0.000000
v 0.000331 0.000178 0.000200
vt -0.000000 0.000000 0.000000
vt 0.022220 0.000000 0.000000
vt -0.000000 0.020000 0.000000
vt 0.022220 0.020000 0.000000
vt -0.000000 0.000000 0.000000
vt 0.058072 0.000000 0.000000
vt -0.000000 0.020000 0.000000
vt 0.058072 0.020000 0.000000
vt 0.000000 0.000000 0.000000
vt 0.022220 0.000000 0.000000
vt 0.000000 0.020000 0.000000
vt 0.022220 0.020000 0.000000
vt 0.000000 0.000000 0.000000
vt 0.058072 0.000000 0.000000
vt 0.000000 0.020000 0.000000
vt 0.058072 0.020000 0.000000
vt -0.024036 0.015841 0.000000
vt 0.034036 0.015841 0.000000
vt -0.024036 0.038061 0.000000
vt 0.034036 0.038061 0.000000
vt -0.034036 0.015841 0.000000
vt 0.024036 0.015841 0.000000
vt -0.034036 0.038061 0.000000
vt 0.024036 0.038061 0.000000
vn -100.000000 0.000000 0.000000
vn -100.000000 0.000000 0.000000
vn -100.000000 0.000000 0.000000
vn -100.000000 0.000000 0.000000
vn 0.000000 100.000000 0.000000
vn 0.000000 100.000000 0.000000
vn 0.000000 100.000000 0.000000
vn 0.000000 100.000000 0.000000
vn 100.000000 0.000000 0.000000
vn 100.000000 0.000000 0.000000
vn 100.000000 0.000000 0.000000
vn 100.000000 0.000000 0.000000
vn 0.000000 -100.000000 0.000000
vn 0.000000 -100.000000 0.000000
vn 0.000000 -100.000000 0.000000
vn 0.000000 -100.000000 0.000000
vn 0.000000 0.000000 100.000000
vn 0.000000 0.000000 100.000000
vn 0.000000 0.000000 100.000000
vn 0.000000 0.000000 100.000000
vn 0.000000 0.000000 -100.000000
vn 0.000000 0.000000 -100.000000
vn 0.000000 0.000000 -100.000000
vn 0.000000 0.000000 -100.000000
usemtl Stahl_-_satiniert
f 1/1/1 2/2/2 4/3/3
f 4/3/3 2/2/2 3/4/4
f 5/5/5 1/6/6 6/7/7
f 6/7/7 1/6/6 4/8/8
f 7/9/9 5/10/10 8/11/11
f 8/11/11 5/10/10 6/12/12
f 2/13/13 7/14/14 3/15/15
f 3/15/15 7/14/14 8/16/16
f 3/17/17 8/18/18 4/19/19
f 4/19/19 8/18/18 6/20/20
f 7/21/21 2/22/22 5/23/23
f 5/23/23 2/22/22 1/24/24
# 8 vertices
# 24 texture params
# 24 normals
# 12 facets

# 1 groups
