# WaveFront *.obj file (generated by Autodesk ATF)

mtllib Collisions_(Nicht gespeichert)_Körper8.mtl

g Körper8

v -0.001700 -0.004606 0.004115
v -0.001700 -0.005435 0.004115
v -0.001700 -0.005435 0.004775
v -0.001700 -0.004606 0.004775
v 0.003500 -0.005435 0.004115
v 0.003500 -0.005435 0.004775
v 0.003500 -0.004606 0.004775
v 0.003500 -0.004606 0.004115
vt 0.075131 -0.041427 0.000000
vt 0.141134 -0.041427 0.000000
vt 0.075131 0.041427 0.000000
vt 0.141134 0.041427 0.000000
vt 0.066003 0.350000 0.000000
vt -0.000000 0.350000 0.000000
vt 0.066003 -0.170000 0.000000
vt 0.000000 -0.170000 0.000000
vt 0.082855 0.350000 0.000000
vt -0.000000 0.350000 0.000000
vt 0.082855 -0.170000 0.000000
vt 0.000000 -0.170000 0.000000
vt 0.066003 0.350000 0.000000
vt 0.000000 0.350000 0.000000
vt 0.066003 -0.170000 0.000000
vt 0.000000 -0.170000 0.000000
vt 0.082855 0.350000 0.000000
vt 0.000000 0.350000 0.000000
vt 0.082855 -0.170000 0.000000
vt 0.000000 -0.170000 0.000000
vt -0.075131 0.041427 0.000000
vt -0.141134 0.041427 0.000000
vt -0.075131 -0.041427 0.000000
vt -0.141134 -0.041427 0.000000
vn -100.000000 0.000000 0.000000
vn -100.000000 0.000000 0.000000
vn -100.000000 0.000000 0.000000
vn -100.000000 0.000000 0.000000
vn 0.000000 -100.000000 0.000000
vn 0.000000 -100.000000 0.000000
vn 0.000000 -100.000000 0.000000
vn 0.000000 -100.000000 0.000000
vn 0.000000 0.000000 100.000000
vn 0.000000 0.000000 100.000000
vn 0.000000 0.000000 100.000000
vn 0.000000 0.000000 100.000000
vn 0.000000 100.000000 0.000000
vn 0.000000 100.000000 0.000000
vn 0.000000 100.000000 0.000000
vn 0.000000 100.000000 0.000000
vn 0.000000 0.000000 -100.000000
vn 0.000000 0.000000 -100.000000
vn 0.000000 0.000000 -100.000000
vn 0.000000 0.000000 -100.000000
vn 100.000000 0.000000 0.000000
vn 100.000000 0.000000 0.000000
vn 100.000000 0.000000 0.000000
vn 100.000000 0.000000 0.000000
usemtl Stahl_-_satiniert
f 2/1/1 3/2/2 1/3/3
f 1/3/3 3/2/2 4/4/4
f 5/5/5 6/6/6 2/7/7
f 2/7/7 6/6/6 3/8/8
f 6/9/9 7/10/10 3/11/11
f 3/11/11 7/10/10 4/12/12
f 7/13/13 8/14/14 4/15/15
f 4/15/15 8/14/14 1/16/16
f 8/17/17 5/18/18 1/19/19
f 1/19/19 5/18/18 2/20/20
f 8/21/21 7/22/22 5/23/23
f 5/23/23 7/22/22 6/24/24
# 8 vertices
# 24 texture params
# 24 normals
# 12 facets

# 1 groups
