# WaveFront *.obj file (generated by Autodesk ATF)

mtllib Collisions_(Nicht gespeichert)_Körper2.mtl

g Körper2

v 0.003900 -0.003000 0.000000
v 0.003900 0.000000 0.000000
v 0.003900 0.000000 0.000800
v 0.003900 -0.003000 0.000800
v 0.000800 -0.003000 0.000000
v 0.000800 -0.003000 0.000800
v 0.000800 0.000000 0.000000
v 0.000800 0.000000 0.000800
vt 0.000000 0.000000 0.000000
vt 0.300000 0.000000 0.000000
vt 0.000000 0.080000 0.000000
vt 0.300000 0.080000 0.000000
vt 0.000000 0.000000 0.000000
vt 0.310000 0.000000 0.000000
vt 0.000000 0.080000 0.000000
vt 0.310000 0.080000 0.000000
vt -0.000000 0.000000 0.000000
vt 0.300000 0.000000 0.000000
vt -0.000000 0.080000 0.000000
vt 0.300000 0.080000 0.000000
vt -0.000000 0.000000 0.000000
vt 0.310000 0.000000 0.000000
vt -0.000000 0.080000 0.000000
vt 0.310000 0.080000 0.000000
vt 0.155000 0.150000 0.000000
vt -0.155000 0.150000 0.000000
vt 0.155000 -0.150000 0.000000
vt -0.155000 -0.150000 0.000000
vt 0.155000 0.150000 0.000000
vt -0.155000 0.150000 0.000000
vt 0.155000 -0.150000 0.000000
vt -0.155000 -0.150000 0.000000
vn 100.000000 0.000000 0.000000
vn 100.000000 0.000000 0.000000
vn 100.000000 0.000000 0.000000
vn 100.000000 0.000000 0.000000
vn 0.000000 -100.000000 0.000000
vn 0.000000 -100.000000 0.000000
vn 0.000000 -100.000000 0.000000
vn 0.000000 -100.000000 0.000000
vn -100.000000 0.000000 0.000000
vn -100.000000 0.000000 0.000000
vn -100.000000 0.000000 0.000000
vn -100.000000 0.000000 0.000000
vn 0.000000 100.000000 0.000000
vn 0.000000 100.000000 0.000000
vn 0.000000 100.000000 0.000000
vn 0.000000 100.000000 0.000000
vn 0.000000 0.000000 100.000000
vn 0.000000 0.000000 100.000000
vn 0.000000 0.000000 100.000000
vn 0.000000 0.000000 100.000000
vn 0.000000 0.000000 -100.000000
vn 0.000000 0.000000 -100.000000
vn 0.000000 0.000000 -100.000000
vn 0.000000 0.000000 -100.000000
usemtl Stahl_-_satiniert
f 1/1/1 2/2/2 4/3/3
f 4/3/3 2/2/2 3/4/4
f 5/5/5 1/6/6 6/7/7
f 6/7/7 1/6/6 4/8/8
f 7/9/9 5/10/10 8/11/11
f 8/11/11 5/10/10 6/12/12
f 2/13/13 7/14/14 3/15/15
f 3/15/15 7/14/14 8/16/16
f 3/17/17 8/18/18 4/19/19
f 4/19/19 8/18/18 6/20/20
f 7/21/21 2/22/22 5/23/23
f 5/23/23 2/22/22 1/24/24
# 8 vertices
# 24 texture params
# 24 normals
# 12 facets

# 1 groups
