# WaveFront *.obj file (generated by Autodesk ATF)

mtllib col10.mtl

g Körper10

v 0.033735 -0.037301 0.090000
v 0.033857 -0.035937 0.090000
v 0.034222 -0.034618 0.090000
v 0.034816 -0.033384 0.090000
v 0.035620 -0.032277 0.090000
v 0.036610 -0.031331 0.090000
v 0.037752 -0.030577 0.090000
v 0.039011 -0.030039 0.090000
v 0.040345 -0.029734 0.090000
v 0.041713 -0.029673 0.090000
v 0.043069 -0.029856 0.090000
v 0.044371 -0.030279 0.090000
v 0.045577 -0.030928 0.090000
v 0.046647 -0.031782 0.090000
v 0.047548 -0.032812 0.090000
v 0.048250 -0.033988 0.090000
v 0.048731 -0.035269 0.090000
v 0.048975 -0.036616 0.090000
v 0.048975 -0.037985 0.090000
v 0.048731 -0.039332 0.090000
v 0.048250 -0.040613 0.090000
v 0.047548 -0.041789 0.090000
v 0.046647 -0.042819 0.090000
v 0.045577 -0.043673 0.090000
v 0.044371 -0.044322 0.090000
v 0.043069 -0.044745 0.090000
v 0.041713 -0.044928 0.090000
v 0.040345 -0.044867 0.090000
v 0.039011 -0.044562 0.090000
v 0.037752 -0.044024 0.090000
v 0.036610 -0.043270 0.090000
v 0.035620 -0.042324 0.090000
v 0.034816 -0.041217 0.090000
v 0.034222 -0.039983 0.090000
v 0.033857 -0.038664 0.090000
v 0.033735 -0.037301 0.098000
v 0.033857 -0.035937 0.098000
v 0.034222 -0.034618 0.098000
v 0.034816 -0.033384 0.098000
v 0.035620 -0.032277 0.098000
v 0.036610 -0.031331 0.098000
v 0.037752 -0.030577 0.098000
v 0.039011 -0.030039 0.098000
v 0.040345 -0.029734 0.098000
v 0.041713 -0.029673 0.098000
v 0.043069 -0.029856 0.098000
v 0.044371 -0.030279 0.098000
v 0.045577 -0.030928 0.098000
v 0.046647 -0.031782 0.098000
v 0.047548 -0.032812 0.098000
v 0.048250 -0.033988 0.098000
v 0.048731 -0.035269 0.098000
v 0.048975 -0.036616 0.098000
v 0.048975 -0.037985 0.098000
v 0.048731 -0.039332 0.098000
v 0.048250 -0.040613 0.098000
v 0.047548 -0.041789 0.098000
v 0.046647 -0.042819 0.098000
v 0.045577 -0.043673 0.098000
v 0.044371 -0.044322 0.098000
v 0.043069 -0.044745 0.098000
v 0.041713 -0.044928 0.098000
v 0.040345 -0.044867 0.098000
v 0.039011 -0.044562 0.098000
v 0.037752 -0.044024 0.098000
v 0.036610 -0.043270 0.098000
v 0.035620 -0.042324 0.098000
v 0.034816 -0.041217 0.098000
v 0.034222 -0.039983 0.098000
v 0.033857 -0.038664 0.098000
vt 0.802853 -2.375237 0.000000
vt 0.790582 -2.238898 0.000000
vt 0.790582 -2.511575 0.000000
vt 0.754165 -2.106942 0.000000
vt 0.754165 -2.643532 0.000000
vt 0.694770 -1.983609 0.000000
vt 0.694770 -2.766865 0.000000
vt 0.614309 -1.872863 0.000000
vt 0.515366 -1.778263 0.000000
vt 0.401121 -1.702851 0.000000
vt 0.275247 -1.649050 0.000000
vt 0.141790 -1.618590 0.000000
vt 0.005038 -1.612448 0.000000
vt -0.130612 -1.630823 0.000000
vt -0.260802 -1.673124 0.000000
vt -0.381346 -1.737992 0.000000
vt -0.488371 -1.823341 0.000000
vt 0.614309 -2.877611 0.000000
vt -0.578436 -1.926429 0.000000
vt -0.648646 -2.043942 0.000000
vt -0.696746 -2.172102 0.000000
vt -0.721189 -2.306792 0.000000
vt -0.721189 -2.443682 0.000000
vt -0.696746 -2.578371 0.000000
vt -0.648646 -2.706532 0.000000
vt -0.578436 -2.824045 0.000000
vt -0.488371 -2.927132 0.000000
vt 0.515366 -2.972210 0.000000
vt -0.381346 -3.012482 0.000000
vt 0.401121 -3.047622 0.000000
vt -0.260802 -3.077349 0.000000
vt 0.275247 -3.101423 0.000000
vt -0.130612 -3.119650 0.000000
vt 0.141790 -3.131884 0.000000
vt 0.005038 -3.138026 0.000000
vt -0.800000 2.261714 0.000000
vt -0.000000 2.261714 0.000000
vt -0.800000 2.398787 0.000000
vt -0.000000 2.398787 0.000000
vt -0.800000 -2.398787 0.000000
vt -0.000000 -2.398787 0.000000
vt -0.800000 -2.261714 0.000000
vt -0.000000 -2.261714 0.000000
vt -0.800000 -2.124640 0.000000
vt -0.000000 -2.124640 0.000000
vt -0.800000 -1.987566 0.000000
vt -0.000000 -1.987566 0.000000
vt -0.800000 -1.850493 0.000000
vt -0.000000 -1.850493 0.000000
vt -0.800000 -1.713419 0.000000
vt -0.000000 -1.713419 0.000000
vt -0.800000 -1.576346 0.000000
vt -0.000000 -1.576346 0.000000
vt -0.800000 -1.439272 0.000000
vt -0.000000 -1.439272 0.000000
vt -0.800000 -1.302199 0.000000
vt -0.000000 -1.302199 0.000000
vt -0.800000 -1.165125 0.000000
vt -0.000000 -1.165125 0.000000
vt -0.800000 -1.028052 0.000000
vt -0.000000 -1.028052 0.000000
vt -0.800000 -0.890978 0.000000
vt -0.000000 -0.890978 0.000000
vt -0.800000 -0.753905 0.000000
vt -0.000000 -0.753905 0.000000
vt -0.800000 -0.616831 0.000000
vt -0.000000 -0.616831 0.000000
vt -0.800000 -0.479757 0.000000
vt -0.000000 -0.479757 0.000000
vt -0.800000 -0.342684 0.000000
vt -0.000000 -0.342684 0.000000
vt -0.800000 -0.205610 0.000000
vt -0.000000 -0.205610 0.000000
vt -0.800000 -0.068537 0.000000
vt -0.000000 -0.068537 0.000000
vt -0.800000 0.068537 0.000000
vt -0.000000 0.068537 0.000000
vt -0.800000 0.205610 0.000000
vt -0.000000 0.205610 0.000000
vt -0.800000 0.342684 0.000000
vt -0.000000 0.342684 0.000000
vt -0.800000 0.479757 0.000000
vt -0.000000 0.479757 0.000000
vt -0.800000 0.616831 0.000000
vt -0.000000 0.616831 0.000000
vt -0.800000 0.753905 0.000000
vt -0.000000 0.753905 0.000000
vt -0.800000 0.890978 0.000000
vt -0.000000 0.890978 0.000000
vt -0.800000 1.028052 0.000000
vt -0.000000 1.028052 0.000000
vt -0.800000 1.165125 0.000000
vt -0.000000 1.165125 0.000000
vt -0.800000 1.302199 0.000000
vt -0.000000 1.302199 0.000000
vt -0.800000 1.439272 0.000000
vt -0.000000 1.439272 0.000000
vt -0.800000 1.576346 0.000000
vt -0.000000 1.576346 0.000000
vt -0.800000 1.713419 0.000000
vt -0.000000 1.713419 0.000000
vt -0.800000 1.850493 0.000000
vt -0.000000 1.850493 0.000000
vt -0.800000 1.987566 0.000000
vt -0.000000 1.987566 0.000000
vt -0.800000 2.124640 0.000000
vt -0.000000 2.124640 0.000000
vt -0.763558 0.000000 0.000000
vt -0.751287 -0.136338 0.000000
vt -0.751287 0.136338 0.000000
vt -0.714869 0.268295 0.000000
vt -0.714869 -0.268295 0.000000
vt -0.655475 0.391628 0.000000
vt -0.655475 -0.391628 0.000000
vt -0.575013 0.502374 0.000000
vt -0.476070 0.596973 0.000000
vt -0.361826 0.672385 0.000000
vt -0.235952 0.726186 0.000000
vt -0.102495 0.756647 0.000000
vt 0.034257 0.762789 0.000000
vt 0.169908 0.744414 0.000000
vt 0.300097 0.702112 0.000000
vt 0.420642 0.637245 0.000000
vt 0.527666 0.551896 0.000000
vt -0.575013 -0.502374 0.000000
vt 0.617731 0.448808 0.000000
vt 0.687942 0.331295 0.000000
vt 0.736041 0.203134 0.000000
vt 0.760484 0.068445 0.000000
vt 0.760484 -0.068445 0.000000
vt 0.736041 -0.203134 0.000000
vt 0.687942 -0.331295 0.000000
vt 0.617731 -0.448808 0.000000
vt 0.527666 -0.551896 0.000000
vt -0.476070 -0.596973 0.000000
vt 0.420642 -0.637245 0.000000
vt -0.361826 -0.672385 0.000000
vt 0.300097 -0.702112 0.000000
vt -0.235952 -0.726186 0.000000
vt 0.169908 -0.744414 0.000000
vt -0.102495 -0.756647 0.000000
vt 0.034257 -0.762789 0.000000
vn 0.000000 0.000000 -100.000000
vn 0.000000 0.000000 -100.000000
vn 0.000000 0.000000 -100.000000
vn 0.000000 0.000000 -100.000000
vn 0.000000 0.000000 -100.000000
vn 0.000000 0.000000 -100.000000
vn 0.000000 0.000000 -100.000000
vn 0.000000 0.000000 -100.000000
vn 0.000000 0.000000 -100.000000
vn 0.000000 0.000000 -100.000000
vn 0.000000 0.000000 -100.000000
vn 0.000000 0.000000 -100.000000
vn 0.000000 0.000000 -100.000000
vn 0.000000 0.000000 -100.000000
vn 0.000000 0.000000 -100.000000
vn 0.000000 0.000000 -100.000000
vn 0.000000 0.000000 -100.000000
vn 0.000000 0.000000 -100.000000
vn 0.000000 0.000000 -100.000000
vn 0.000000 0.000000 -100.000000
vn 0.000000 0.000000 -100.000000
vn 0.000000 0.000000 -100.000000
vn 0.000000 0.000000 -100.000000
vn 0.000000 0.000000 -100.000000
vn 0.000000 0.000000 -100.000000
vn 0.000000 0.000000 -100.000000
vn 0.000000 0.000000 -100.000000
vn 0.000000 0.000000 -100.000000
vn 0.000000 0.000000 -100.000000
vn 0.000000 0.000000 -100.000000
vn 0.000000 0.000000 -100.000000
vn 0.000000 0.000000 -100.000000
vn 0.000000 0.000000 -100.000000
vn 0.000000 0.000000 -100.000000
vn 0.000000 0.000000 -100.000000
vn -98.392959 17.855689 -0.000000
vn -98.392959 17.855689 -0.000000
vn -100.000000 0.000000 -0.000000
vn -100.000000 0.000000 -0.000000
vn -98.392959 -17.855689 0.000000
vn -98.392959 -17.855689 0.000000
vn -93.623487 -35.137482 0.000000
vn -93.623487 -35.137482 0.000000
vn -85.844879 -51.289928 0.000000
vn -85.844879 -51.289928 0.000000
vn -75.307147 -65.793873 0.000000
vn -75.307147 -65.793873 0.000000
vn -62.348980 -78.183148 0.000000
vn -62.348980 -78.183148 0.000000
vn -47.386866 -88.059553 0.000000
vn -47.386866 -88.059553 0.000000
vn -30.901699 -95.105652 0.000000
vn -30.901699 -95.105652 0.000000
vn -13.423327 -99.094976 0.000000
vn -13.423327 -99.094976 0.000000
vn 4.486483 -99.899307 0.000000
vn 4.486483 -99.899307 0.000000
vn 22.252093 -97.492791 0.000000
vn 22.252093 -97.492791 0.000000
vn 39.302503 -91.952777 0.000000
vn 39.302503 -91.952777 0.000000
vn 55.089698 -83.457325 0.000000
vn 55.089698 -83.457325 0.000000
vn 69.106265 -72.279486 0.000000
vn 69.106265 -72.279486 0.000000
vn 80.901699 -58.778525 0.000000
vn 80.901699 -58.778525 0.000000
vn 90.096887 -43.388374 0.000000
vn 90.096887 -43.388374 0.000000
vn 96.396286 -26.603685 0.000000
vn 96.396286 -26.603685 0.000000
vn 99.597429 -8.963931 0.000000
vn 99.597429 -8.963931 0.000000
vn 99.597429 8.963931 0.000000
vn 99.597429 8.963931 0.000000
vn 96.396286 26.603685 0.000000
vn 96.396286 26.603685 0.000000
vn 90.096887 43.388374 0.000000
vn 90.096887 43.388374 0.000000
vn 80.901699 58.778525 0.000000
vn 80.901699 58.778525 0.000000
vn 69.106265 72.279486 0.000000
vn 69.106265 72.279486 0.000000
vn 55.089698 83.457325 0.000000
vn 55.089698 83.457325 0.000000
vn 39.302503 91.952777 0.000000
vn 39.302503 91.952777 0.000000
vn 22.252093 97.492791 0.000000
vn 22.252093 97.492791 0.000000
vn 4.486483 99.899307 0.000000
vn 4.486483 99.899307 0.000000
vn -13.423327 99.094976 -0.000000
vn -13.423327 99.094976 -0.000000
vn -30.901699 95.105652 -0.000000
vn -30.901699 95.105652 -0.000000
vn -47.386866 88.059553 -0.000000
vn -47.386866 88.059553 -0.000000
vn -62.348980 78.183148 -0.000000
vn -62.348980 78.183148 -0.000000
vn -75.307147 65.793873 -0.000000
vn -75.307147 65.793873 -0.000000
vn -85.844879 51.289928 -0.000000
vn -85.844879 51.289928 -0.000000
vn -93.623487 35.137482 -0.000000
vn -93.623487 35.137482 -0.000000
vn 0.000000 0.000000 100.000000
vn 0.000000 0.000000 100.000000
vn 0.000000 0.000000 100.000000
vn 0.000000 0.000000 100.000000
vn 0.000000 0.000000 100.000000
vn 0.000000 0.000000 100.000000
vn 0.000000 0.000000 100.000000
vn 0.000000 0.000000 100.000000
vn 0.000000 0.000000 100.000000
vn 0.000000 0.000000 100.000000
vn 0.000000 0.000000 100.000000
vn 0.000000 0.000000 100.000000
vn 0.000000 0.000000 100.000000
vn 0.000000 0.000000 100.000000
vn 0.000000 0.000000 100.000000
vn 0.000000 0.000000 100.000000
vn 0.000000 0.000000 100.000000
vn 0.000000 0.000000 100.000000
vn 0.000000 0.000000 100.000000
vn 0.000000 0.000000 100.000000
vn 0.000000 0.000000 100.000000
vn 0.000000 0.000000 100.000000
vn 0.000000 0.000000 100.000000
vn 0.000000 0.000000 100.000000
vn 0.000000 0.000000 100.000000
vn 0.000000 0.000000 100.000000
vn 0.000000 0.000000 100.000000
vn 0.000000 0.000000 100.000000
vn 0.000000 0.000000 100.000000
vn 0.000000 0.000000 100.000000
vn 0.000000 0.000000 100.000000
vn 0.000000 0.000000 100.000000
vn 0.000000 0.000000 100.000000
vn 0.000000 0.000000 100.000000
vn 0.000000 0.000000 100.000000
usemtl Stahl_-_satiniert
f 1/1/1 2/2/2 35/3/3
f 35/3/3 2/2/2 3/4/4
f 35/3/3 3/4/4 34/5/5
f 34/5/5 3/4/4 4/6/6
f 34/5/5 4/6/6 33/7/7
f 33/7/7 4/6/6 5/8/8
f 33/7/7 5/8/8 6/9/9
f 6/9/9 7/10/10 33/7/7
f 33/7/7 7/10/10 8/11/11
f 33/7/7 8/11/11 9/12/12
f 9/12/12 10/13/13 33/7/7
f 33/7/7 10/13/13 11/14/14
f 33/7/7 11/14/14 12/15/15
f 12/15/15 13/16/16 33/7/7
f 33/7/7 13/16/16 14/17/17
f 33/7/7 14/17/17 32/18/18
f 32/18/18 14/17/17 15/19/19
f 32/18/18 15/19/19 16/20/20
f 16/20/20 17/21/21 32/18/18
f 32/18/18 17/21/21 18/22/22
f 32/18/18 18/22/22 19/23/23
f 19/23/23 20/24/24 32/18/18
f 32/18/18 20/24/24 21/25/25
f 32/18/18 21/25/25 22/26/26
f 22/26/26 23/27/27 32/18/18
f 32/18/18 23/27/27 31/28/28
f 31/28/28 23/27/27 24/29/29
f 31/28/28 24/29/29 30/30/30
f 30/30/30 24/29/29 25/31/31
f 30/30/30 25/31/31 29/32/32
f 29/32/32 25/31/31 26/33/33
f 29/32/32 26/33/33 28/34/34
f 28/34/34 26/33/33 27/35/35
f 37/36/36 2/37/37 36/38/38
f 36/38/38 2/37/37 1/39/39
f 36/40/38 1/41/39 70/42/40
f 70/42/40 1/41/39 35/43/41
f 70/42/40 35/43/41 69/44/42
f 69/44/42 35/43/41 34/45/43
f 69/44/42 34/45/43 68/46/44
f 68/46/44 34/45/43 33/47/45
f 68/46/44 33/47/45 67/48/46
f 67/48/46 33/47/45 32/49/47
f 67/48/46 32/49/47 66/50/48
f 66/50/48 32/49/47 31/51/49
f 66/50/48 31/51/49 65/52/50
f 65/52/50 31/51/49 30/53/51
f 65/52/50 30/53/51 64/54/52
f 64/54/52 30/53/51 29/55/53
f 64/54/52 29/55/53 63/56/54
f 63/56/54 29/55/53 28/57/55
f 63/56/54 28/57/55 62/58/56
f 62/58/56 28/57/55 27/59/57
f 62/58/56 27/59/57 61/60/58
f 61/60/58 27/59/57 26/61/59
f 61/60/58 26/61/59 60/62/60
f 60/62/60 26/61/59 25/63/61
f 60/62/60 25/63/61 59/64/62
f 59/64/62 25/63/61 24/65/63
f 59/64/62 24/65/63 58/66/64
f 58/66/64 24/65/63 23/67/65
f 58/66/64 23/67/65 57/68/66
f 57/68/66 23/67/65 22/69/67
f 57/68/66 22/69/67 56/70/68
f 56/70/68 22/69/67 21/71/69
f 56/70/68 21/71/69 55/72/70
f 55/72/70 21/71/69 20/73/71
f 55/72/70 20/73/71 54/74/72
f 54/74/72 20/73/71 19/75/73
f 54/74/72 19/75/73 53/76/74
f 53/76/74 19/75/73 18/77/75
f 53/76/74 18/77/75 52/78/76
f 52/78/76 18/77/75 17/79/77
f 52/78/76 17/79/77 51/80/78
f 51/80/78 17/79/77 16/81/79
f 51/80/78 16/81/79 50/82/80
f 50/82/80 16/81/79 15/83/81
f 50/82/80 15/83/81 49/84/82
f 49/84/82 15/83/81 14/85/83
f 49/84/82 14/85/83 48/86/84
f 48/86/84 14/85/83 13/87/85
f 48/86/84 13/87/85 47/88/86
f 47/88/86 13/87/85 12/89/87
f 47/88/86 12/89/87 46/90/88
f 46/90/88 12/89/87 11/91/89
f 46/90/88 11/91/89 45/92/90
f 45/92/90 11/91/89 10/93/91
f 45/92/90 10/93/91 44/94/92
f 44/94/92 10/93/91 9/95/93
f 44/94/92 9/95/93 43/96/94
f 43/96/94 9/95/93 8/97/95
f 43/96/94 8/97/95 42/98/96
f 42/98/96 8/97/95 7/99/97
f 42/98/96 7/99/97 41/100/98
f 41/100/98 7/99/97 6/101/99
f 41/100/98 6/101/99 40/102/100
f 40/102/100 6/101/99 5/103/101
f 40/102/100 5/103/101 39/104/102
f 39/104/102 5/103/101 4/105/103
f 39/104/102 4/105/103 38/106/104
f 38/106/104 4/105/103 3/107/105
f 38/106/104 3/107/105 37/36/36
f 37/36/36 3/107/105 2/37/37
f 36/108/106 70/109/107 37/110/108
f 37/110/108 70/109/107 38/111/109
f 38/111/109 70/109/107 69/112/110
f 38/111/109 69/112/110 39/113/111
f 39/113/111 69/112/110 68/114/112
f 39/113/111 68/114/112 40/115/113
f 40/115/113 68/114/112 41/116/114
f 41/116/114 68/114/112 42/117/115
f 42/117/115 68/114/112 43/118/116
f 43/118/116 68/114/112 44/119/117
f 44/119/117 68/114/112 45/120/118
f 45/120/118 68/114/112 46/121/119
f 46/121/119 68/114/112 47/122/120
f 47/122/120 68/114/112 48/123/121
f 48/123/121 68/114/112 49/124/122
f 49/124/122 68/114/112 67/125/123
f 49/124/122 67/125/123 50/126/124
f 50/126/124 67/125/123 51/127/125
f 51/127/125 67/125/123 52/128/126
f 52/128/126 67/125/123 53/129/127
f 53/129/127 67/125/123 54/130/128
f 54/130/128 67/125/123 55/131/129
f 55/131/129 67/125/123 56/132/130
f 56/132/130 67/125/123 57/133/131
f 57/133/131 67/125/123 58/134/132
f 58/134/132 67/125/123 66/135/133
f 58/134/132 66/135/133 59/136/134
f 59/136/134 66/135/133 65/137/135
f 59/136/134 65/137/135 60/138/136
f 60/138/136 65/137/135 64/139/137
f 60/138/136 64/139/137 61/140/138
f 61/140/138 64/139/137 63/141/139
f 61/140/138 63/141/139 62/142/140
# 70 vertices
# 142 texture params
# 140 normals
# 136 facets

# 1 groups
