# WaveFront *.obj file (generated by Autodesk ATF)

mtllib col12.mtl

g Körper12

v -0.058000 -0.082046 0.085000
v -0.103000 -0.082046 0.085000
v -0.104596 -0.082046 0.085000
v -0.090000 -0.062000 0.085000
v -0.086000 -0.061000 0.085000
v -0.063000 -0.061000 0.085000
v -0.060000 -0.064000 0.085000
v -0.058000 -0.070000 0.085000
v -0.052000 -0.069000 0.085000
v -0.047000 -0.070000 0.085000
v -0.045404 -0.074788 0.085000
v -0.045404 -0.081000 0.085000
v -0.047000 -0.082046 0.085000
v -0.103000 -0.082046 0.095000
v -0.104596 -0.082046 0.095000
v -0.047000 -0.082046 0.095000
v -0.058000 -0.082046 0.095000
v -0.103000 -0.096000 0.108000
v -0.103000 -0.110000 0.088000
v -0.058000 -0.110000 0.088000
v -0.058000 -0.096000 0.108000
v -0.103000 -0.080000 0.095000
v -0.058000 -0.080000 0.095000
v -0.090000 -0.062000 0.095000
v -0.086000 -0.061000 0.095000
v -0.063000 -0.061000 0.095000
v -0.060000 -0.064000 0.095000
v -0.058000 -0.070000 0.095000
v -0.052000 -0.069000 0.095000
v -0.047000 -0.070000 0.095000
v -0.045404 -0.074788 0.095000
v -0.045404 -0.081000 0.095000
v -0.058000 -0.082046 0.067815
v -0.103000 -0.082046 0.067815
v -0.103000 -0.082559 0.068791
v -0.058000 -0.082559 0.068791
vt 9.732495 -6.404563 0.000000
vt 5.232494 -5.200000 0.000000
vt 5.232495 -6.404563 0.000000
vt 3.972907 -5.678761 0.000000
vt 3.972907 -6.300000 0.000000
vt 9.892105 -6.404563 0.000000
vt 8.432494 -4.400000 0.000000
vt 5.432494 -4.600000 0.000000
vt 8.032494 -4.300000 0.000000
vt 5.732494 -4.300000 0.000000
vt 4.632494 -5.100000 0.000000
vt 4.132494 -5.200000 0.000000
vt 4.132494 -6.404563 0.000000
vt 2.840389 8.500000 0.000000
vt 3.000000 8.500000 0.000000
vt 2.840389 9.500000 0.000000
vt 3.000000 9.500000 0.000000
vt 8.600000 8.500000 0.000000
vt 8.600000 9.500000 0.000000
vt 7.500000 8.500000 0.000000
vt 7.500000 9.500000 0.000000
vt -0.000000 3.000000 0.000000
vt 2.441311 3.000000 0.000000
vt -0.000000 7.500000 0.000000
vt 2.441311 7.500000 0.000000
vt 0.000000 3.000000 0.000000
vt 2.061553 3.000000 0.000000
vt 0.000000 7.500000 0.000000
vt 2.061553 7.500000 0.000000
vt -0.000000 0.000000 0.000000
vt 0.412311 0.000000 0.000000
vt -0.000000 1.000000 0.000000
vt 0.412311 1.000000 0.000000
vt -0.000000 0.000000 0.000000
vt 2.300000 0.000000 0.000000
vt -0.000000 1.000000 0.000000
vt 2.300000 1.000000 0.000000
vt 0.000000 0.000000 0.000000
vt 0.424264 0.000000 0.000000
vt 0.000000 1.000000 0.000000
vt 0.424264 1.000000 0.000000
vt 0.000000 0.000000 0.000000
vt 0.632456 0.000000 0.000000
vt 0.000000 1.000000 0.000000
vt 0.632456 1.000000 0.000000
vt -0.000000 0.000000 0.000000
vt 0.608276 0.000000 0.000000
vt -0.000000 1.000000 0.000000
vt 0.608276 1.000000 0.000000
vt 0.000000 0.000000 0.000000
vt 0.509902 0.000000 0.000000
vt 0.000000 1.000000 0.000000
vt 0.509902 1.000000 0.000000
vt 0.000000 0.000000 0.000000
vt 0.504658 0.000000 0.000000
vt 0.000000 1.000000 0.000000
vt 0.504658 1.000000 0.000000
vt 0.000000 0.000000 0.000000
vt 0.621239 0.000000 0.000000
vt 0.000000 1.000000 0.000000
vt 0.621239 1.000000 0.000000
vt 0.000000 0.000000 0.000000
vt 0.190792 0.000000 0.000000
vt 0.000000 1.000000 0.000000
vt 0.190792 1.000000 0.000000
vt -0.000000 0.000000 0.000000
vt 2.479665 0.000000 0.000000
vt -0.000000 1.000000 0.000000
vt 2.479665 1.000000 0.000000
vt 1.700012 -1.052282 0.000000
vt 2.800012 -1.052282 0.000000
vt 1.700012 -0.847719 0.000000
vt 2.959599 -0.947719 0.000000
vt 2.959599 -0.326479 0.000000
vt 1.700012 0.152282 0.000000
vt 2.800012 0.152282 0.000000
vt 2.300012 0.252282 0.000000
vt 1.500012 0.752282 0.000000
vt -1.499988 0.952282 0.000000
vt -2.799988 -0.847719 0.000000
vt 1.200012 1.052282 0.000000
vt -1.099988 1.052282 0.000000
vt -2.959599 -1.052282 0.000000
vt -2.799988 -1.052282 0.000000
vt 2.531519 -9.732495 0.000000
vt 4.250000 -9.732495 0.000000
vt 2.531519 -5.232495 0.000000
vt 4.250000 -5.232495 0.000000
vt 0.000000 3.000000 0.000000
vt 0.110283 3.000000 0.000000
vt 0.000000 7.500000 0.000000
vt 0.110283 7.500000 0.000000
vt -2.009240 1.295437 0.000000
vt -1.911633 1.244104 0.000000
vt -0.290760 1.295437 0.000000
vt 0.009240 -1.500000 0.000000
vt 0.709240 1.295437 0.000000
vt 2.009240 -0.100000 0.000000
vt 0.709240 1.500000 0.000000
vt 0.000000 3.000000 0.000000
vt 3.349606 3.000000 0.000000
vt 0.000000 7.500000 0.000000
vt 3.349606 7.500000 0.000000
vt 1.911633 1.244104 0.000000
vt 0.290760 1.295437 0.000000
vt -0.009240 -1.500000 0.000000
vt -0.709240 1.295437 0.000000
vt -2.009240 -0.100000 0.000000
vt -0.709240 1.500000 0.000000
vt 2.009240 1.295437 0.000000
vn 0.000000 0.000000 -100.000000
vn 0.000000 0.000000 -100.000000
vn 0.000000 0.000000 -100.000000
vn 0.000000 0.000000 -100.000000
vn 0.000000 0.000000 -100.000000
vn 0.000000 0.000000 -100.000000
vn 0.000000 0.000000 -100.000000
vn 0.000000 0.000000 -100.000000
vn 0.000000 0.000000 -100.000000
vn 0.000000 0.000000 -100.000000
vn 0.000000 0.000000 -100.000000
vn 0.000000 0.000000 -100.000000
vn 0.000000 0.000000 -100.000000
vn 0.000000 -100.000000 0.000000
vn 0.000000 -100.000000 0.000000
vn 0.000000 -100.000000 0.000000
vn 0.000000 -100.000000 0.000000
vn 0.000000 -100.000000 0.000000
vn 0.000000 -100.000000 0.000000
vn 0.000000 -100.000000 0.000000
vn 0.000000 -100.000000 0.000000
vn 0.000000 -81.923192 57.346234
vn 0.000000 -81.923192 57.346234
vn 0.000000 -81.923192 57.346234
vn 0.000000 -81.923192 57.346234
vn 0.000000 63.059263 77.611400
vn 0.000000 63.059263 77.611400
vn 0.000000 63.059263 77.611400
vn 0.000000 63.059263 77.611400
vn -24.253563 97.014250 0.000000
vn -24.253563 97.014250 0.000000
vn -24.253563 97.014250 0.000000
vn -24.253563 97.014250 0.000000
vn 0.000000 100.000000 0.000000
vn 0.000000 100.000000 0.000000
vn 0.000000 100.000000 0.000000
vn 0.000000 100.000000 0.000000
vn 70.710678 70.710678 0.000000
vn 70.710678 70.710678 0.000000
vn 70.710678 70.710678 0.000000
vn 70.710678 70.710678 0.000000
vn 94.868330 31.622777 0.000000
vn 94.868330 31.622777 0.000000
vn 94.868330 31.622777 0.000000
vn 94.868330 31.622777 0.000000
vn -16.439899 98.639392 0.000000
vn -16.439899 98.639392 0.000000
vn -16.439899 98.639392 0.000000
vn -16.439899 98.639392 0.000000
vn 19.611614 98.058068 0.000000
vn 19.611614 98.058068 0.000000
vn 19.611614 98.058068 0.000000
vn 19.611614 98.058068 0.000000
vn 94.868330 31.622777 0.000000
vn 94.868330 31.622777 0.000000
vn 94.868330 31.622777 0.000000
vn 94.868330 31.622777 0.000000
vn 100.000000 0.000000 0.000000
vn 100.000000 0.000000 0.000000
vn 100.000000 0.000000 0.000000
vn 100.000000 0.000000 0.000000
vn 54.804832 -83.644667 0.000000
vn 54.804832 -83.644667 0.000000
vn 54.804832 -83.644667 0.000000
vn 54.804832 -83.644667 0.000000
vn -80.840088 58.863233 0.000000
vn -80.840088 58.863233 0.000000
vn -80.840088 58.863233 0.000000
vn -80.840088 58.863233 0.000000
vn 0.000000 0.000000 100.000000
vn 0.000000 0.000000 100.000000
vn 0.000000 0.000000 100.000000
vn 0.000000 0.000000 100.000000
vn 0.000000 0.000000 100.000000
vn 0.000000 0.000000 100.000000
vn 0.000000 0.000000 100.000000
vn 0.000000 0.000000 100.000000
vn 0.000000 0.000000 100.000000
vn 0.000000 0.000000 100.000000
vn 0.000000 0.000000 100.000000
vn 0.000000 0.000000 100.000000
vn 0.000000 0.000000 100.000000
vn 0.000000 0.000000 100.000000
vn 0.000000 0.000000 100.000000
vn -0.000000 100.000000 -0.000000
vn -0.000000 100.000000 -0.000000
vn -0.000000 100.000000 -0.000000
vn -0.000000 100.000000 -0.000000
vn 0.000000 -88.506680 -46.546402
vn 0.000000 -88.506680 -46.546402
vn 0.000000 -88.506680 -46.546402
vn 0.000000 -88.506680 -46.546402
vn -100.000000 0.000000 0.000000
vn -100.000000 0.000000 0.000000
vn -100.000000 0.000000 0.000000
vn -100.000000 0.000000 0.000000
vn -100.000000 0.000000 0.000000
vn -100.000000 0.000000 0.000000
vn -100.000000 0.000000 0.000000
vn 0.000000 -57.346234 -81.923192
vn 0.000000 -57.346234 -81.923192
vn 0.000000 -57.346234 -81.923192
vn 0.000000 -57.346234 -81.923192
vn 100.000000 0.000000 0.000000
vn 100.000000 0.000000 0.000000
vn 100.000000 0.000000 0.000000
vn 100.000000 0.000000 0.000000
vn 100.000000 0.000000 0.000000
vn 100.000000 0.000000 0.000000
vn 100.000000 0.000000 0.000000
usemtl Stahl_-_satiniert
f 2/1/1 8/2/2 1/3/3
f 1/3/3 8/2/2 11/4/4
f 1/3/3 11/4/4 12/5/5
f 3/6/6 4/7/7 2/1/1
f 2/1/1 4/7/7 8/2/2
f 8/2/2 4/7/7 7/8/8
f 7/8/8 4/7/7 5/9/9
f 7/8/8 5/9/9 6/10/10
f 9/11/11 10/12/12 8/2/2
f 8/2/2 10/12/12 11/4/4
f 12/5/5 13/13/13 1/3/3
f 3/14/14 2/15/15 15/16/16
f 15/16/16 2/15/15 14/17/17
f 13/18/18 16/19/19 1/20/20
f 1/20/20 16/19/19 17/21/21
f 18/22/22 19/23/23 21/24/24
f 21/24/24 19/23/23 20/25/25
f 22/26/26 18/27/27 23/28/28
f 23/28/28 18/27/27 21/29/29
f 5/30/30 4/31/31 25/32/32
f 25/32/32 4/31/31 24/33/33
f 6/34/34 5/35/35 26/36/36
f 26/36/36 5/35/35 25/37/37
f 7/38/38 6/39/39 27/40/40
f 27/40/40 6/39/39 26/41/41
f 8/42/42 7/43/43 28/44/44
f 28/44/44 7/43/43 27/45/45
f 9/46/46 8/47/47 29/48/48
f 29/48/48 8/47/47 28/49/49
f 10/50/50 9/51/51 30/52/52
f 30/52/52 9/51/51 29/53/53
f 11/54/54 10/55/55 31/56/56
f 31/56/56 10/55/55 30/57/57
f 12/58/58 11/59/59 32/60/60
f 32/60/60 11/59/59 31/61/61
f 13/62/62 12/63/63 16/64/64
f 16/64/64 12/63/63 32/65/65
f 4/66/66 3/67/67 24/68/68
f 24/68/68 3/67/67 15/69/69
f 17/70/70 16/71/71 23/72/72
f 23/72/72 16/71/71 32/73/73
f 23/72/72 32/73/73 31/74/74
f 23/72/72 31/74/74 28/75/75
f 28/75/75 31/74/74 30/76/76
f 28/75/75 30/76/76 29/77/77
f 27/78/78 24/79/79 28/75/75
f 28/75/75 24/79/79 22/80/80
f 28/75/75 22/80/80 23/72/72
f 26/81/81 25/82/82 27/78/78
f 27/78/78 25/82/82 24/79/79
f 24/79/79 15/83/83 22/80/80
f 22/80/80 15/83/83 14/84/84
f 34/85/85 2/86/86 33/87/87
f 33/87/87 2/86/86 1/88/88
f 35/89/89 34/90/90 36/91/91
f 36/91/91 34/90/90 33/92/92
f 34/93/93 35/94/94 2/95/95
f 2/95/95 35/94/94 19/96/96
f 2/95/95 19/96/96 14/97/97
f 14/97/97 19/96/96 18/98/98
f 14/97/97 18/98/98 22/99/99
f 19/100/100 35/101/101 20/102/102
f 20/102/102 35/101/101 36/103/103
f 36/104/104 1/105/105 20/106/106
f 20/106/106 1/105/105 17/107/107
f 20/106/106 17/107/107 21/108/108
f 21/108/108 17/107/107 23/109/109
f 36/104/104 33/110/110 1/105/105
# 36 vertices
# 110 texture params
# 110 normals
# 68 facets

# 1 groups
