# WaveFront *.obj file (generated by Autodesk ATF)

mtllib col6.mtl

g Körper6

v 0.105000 0.027292 0.113000
v 0.105000 0.070000 0.113000
v 0.083527 0.070000 0.113000
v 0.083527 0.027292 0.113000
v 0.105000 0.027292 0.085000
v 0.105000 0.070000 0.085000
v 0.083527 0.070000 0.085000
v 0.083527 0.027292 0.085000
v 0.087917 0.027292 0.103000
v 0.088034 0.027292 0.104187
v 0.088380 0.027292 0.105328
v 0.088942 0.027292 0.106379
v 0.089699 0.027292 0.107301
v 0.090621 0.027292 0.108058
v 0.091672 0.027292 0.108620
v 0.092813 0.027292 0.108966
v 0.094000 0.027292 0.109083
v 0.095187 0.027292 0.108966
v 0.096328 0.027292 0.108620
v 0.097379 0.027292 0.108058
v 0.098301 0.027292 0.107301
v 0.099058 0.027292 0.106379
v 0.099620 0.027292 0.105328
v 0.099966 0.027292 0.104187
v 0.100083 0.027292 0.103000
v 0.099966 0.027292 0.101813
v 0.099620 0.027292 0.100672
v 0.099058 0.027292 0.099621
v 0.098301 0.027292 0.098699
v 0.097379 0.027292 0.097942
v 0.096328 0.027292 0.097380
v 0.095187 0.027292 0.097034
v 0.094000 0.027292 0.096917
v 0.092813 0.027292 0.097034
v 0.091672 0.027292 0.097380
v 0.090621 0.027292 0.097942
v 0.089699 0.027292 0.098699
v 0.088942 0.027292 0.099621
v 0.088380 0.027292 0.100672
v 0.088034 0.027292 0.101813
v 0.087917 0.047292 0.103000
v 0.088034 0.047292 0.101813
v 0.088380 0.047292 0.100672
v 0.088942 0.047292 0.099621
v 0.089699 0.047292 0.098699
v 0.090621 0.047292 0.097942
v 0.091672 0.047292 0.097380
v 0.092813 0.047292 0.097034
v 0.094000 0.047292 0.096917
v 0.095187 0.047292 0.097034
v 0.096328 0.047292 0.097380
v 0.097379 0.047292 0.097942
v 0.098301 0.047292 0.098699
v 0.099058 0.047292 0.099621
v 0.099620 0.047292 0.100672
v 0.099966 0.047292 0.101813
v 0.100083 0.047292 0.103000
v 0.099966 0.047292 0.104187
v 0.099620 0.047292 0.105328
v 0.099058 0.047292 0.106379
v 0.098301 0.047292 0.107301
v 0.097379 0.047292 0.108058
v 0.096328 0.047292 0.108620
v 0.095187 0.047292 0.108966
v 0.094000 0.047292 0.109083
v 0.092813 0.047292 0.108966
v 0.091672 0.047292 0.108620
v 0.090621 0.047292 0.108058
v 0.089699 0.047292 0.107301
v 0.088942 0.047292 0.106379
v 0.088380 0.047292 0.105328
v 0.088034 0.047292 0.104187
vt 1.073671 2.135412 0.000000
vt -1.073671 2.135412 0.000000
vt 1.073671 -2.135412 0.000000
vt -1.073671 -2.135412 0.000000
vt 0.000000 0.000000 0.000000
vt 4.270824 0.000000 0.000000
vt 0.000000 2.800000 0.000000
vt 4.270824 2.800000 0.000000
vt 0.000000 0.000000 0.000000
vt 2.147342 0.000000 0.000000
vt 0.000000 2.800000 0.000000
vt 2.147342 2.800000 0.000000
vt 4.270824 2.800000 0.000000
vt 0.000000 2.800000 0.000000
vt 4.270824 0.000000 0.000000
vt 0.000000 0.000000 0.000000
vt 0.450753 1.681331 0.000000
vt 0.439066 1.800000 0.000000
vt 0.000000 2.800000 0.000000
vt 0.450753 1.918669 0.000000
vt 0.485368 2.032777 0.000000
vt 0.541579 2.137940 0.000000
vt 0.617226 2.230116 0.000000
vt 0.709402 2.305763 0.000000
vt 0.814565 2.361974 0.000000
vt 0.928673 2.396589 0.000000
vt 1.047342 2.408276 0.000000
vt 2.147342 2.800000 0.000000
vt 1.166011 2.396589 0.000000
vt 1.280119 2.361974 0.000000
vt 1.385282 2.305763 0.000000
vt 1.477458 2.230116 0.000000
vt 1.553105 2.137940 0.000000
vt 1.609316 2.032777 0.000000
vt 1.643930 1.918669 0.000000
vt 1.655618 1.800000 0.000000
vt 1.643930 1.681331 0.000000
vt 2.147342 0.000000 0.000000
vt 1.609316 1.567223 0.000000
vt 1.553105 1.462060 0.000000
vt 1.477458 1.369884 0.000000
vt 1.385282 1.294237 0.000000
vt 1.280119 1.238026 0.000000
vt 1.166011 1.203412 0.000000
vt 1.047342 1.191724 0.000000
vt 0.000000 0.000000 0.000000
vt 0.928673 1.203412 0.000000
vt 0.814565 1.238026 0.000000
vt 0.709402 1.294237 0.000000
vt 0.617226 1.369884 0.000000
vt 0.541579 1.462060 0.000000
vt 0.485368 1.567223 0.000000
vt -0.596588 -0.118669 0.000000
vt 0.596588 -0.118669 0.000000
vt -0.608276 0.000000 0.000000
vt 0.608276 0.000000 0.000000
vt -0.596588 0.118669 0.000000
vt 0.596588 0.118669 0.000000
vt -0.561974 0.232777 0.000000
vt 0.561974 0.232777 0.000000
vt -0.505763 0.337940 0.000000
vt 0.505763 0.337940 0.000000
vt -0.430116 0.430116 0.000000
vt 0.430116 0.430116 0.000000
vt -0.337940 0.505763 0.000000
vt 0.337940 0.505763 0.000000
vt -0.232777 0.561974 0.000000
vt 0.232777 0.561974 0.000000
vt -0.118669 0.596588 0.000000
vt 0.118669 0.596588 0.000000
vt 0.000000 0.608276 0.000000
vt 0.561974 -0.232777 0.000000
vt -0.561974 -0.232777 0.000000
vt 0.505763 -0.337940 0.000000
vt -0.505763 -0.337940 0.000000
vt 0.430116 -0.430116 0.000000
vt -0.430116 -0.430116 0.000000
vt 0.337940 -0.505763 0.000000
vt -0.337940 -0.505763 0.000000
vt 0.232777 -0.561974 0.000000
vt -0.232777 -0.561974 0.000000
vt 0.118669 -0.596588 0.000000
vt -0.118669 -0.596588 0.000000
vt 0.000000 -0.608276 0.000000
vt 2.000000 -1.791521 0.000000
vt 0.000000 -1.791521 0.000000
vt 2.000000 -1.910956 0.000000
vt 0.000000 -1.910956 0.000000
vt 2.000000 1.910956 0.000000
vt 0.000000 1.910956 0.000000
vt 2.000000 1.791521 0.000000
vt 0.000000 1.791521 0.000000
vt 2.000000 1.672087 0.000000
vt 0.000000 1.672087 0.000000
vt 2.000000 1.552652 0.000000
vt 0.000000 1.552652 0.000000
vt 2.000000 1.433217 0.000000
vt 0.000000 1.433217 0.000000
vt 2.000000 1.313782 0.000000
vt 0.000000 1.313782 0.000000
vt 2.000000 1.194348 0.000000
vt 0.000000 1.194348 0.000000
vt 2.000000 1.074913 0.000000
vt 0.000000 1.074913 0.000000
vt 2.000000 0.955478 0.000000
vt 0.000000 0.955478 0.000000
vt 2.000000 0.836043 0.000000
vt 0.000000 0.836043 0.000000
vt 2.000000 0.716609 0.000000
vt 0.000000 0.716609 0.000000
vt 2.000000 0.597174 0.000000
vt 0.000000 0.597174 0.000000
vt 2.000000 0.477739 0.000000
vt 0.000000 0.477739 0.000000
vt 2.000000 0.358304 0.000000
vt 0.000000 0.358304 0.000000
vt 2.000000 0.238870 0.000000
vt 0.000000 0.238870 0.000000
vt 2.000000 0.119435 0.000000
vt 0.000000 0.119435 0.000000
vt 2.000000 0.000000 0.000000
vt 0.000000 0.000000 0.000000
vt 2.000000 -0.119435 0.000000
vt 0.000000 -0.119435 0.000000
vt 2.000000 -0.238870 0.000000
vt 0.000000 -0.238870 0.000000
vt 2.000000 -0.358304 0.000000
vt 0.000000 -0.358304 0.000000
vt 2.000000 -0.477739 0.000000
vt 0.000000 -0.477739 0.000000
vt 2.000000 -0.597174 0.000000
vt 0.000000 -0.597174 0.000000
vt 2.000000 -0.716609 0.000000
vt 0.000000 -0.716609 0.000000
vt 2.000000 -0.836043 0.000000
vt 0.000000 -0.836043 0.000000
vt 2.000000 -0.955478 0.000000
vt 0.000000 -0.955478 0.000000
vt 2.000000 -1.074913 0.000000
vt 0.000000 -1.074913 0.000000
vt 2.000000 -1.194348 0.000000
vt 0.000000 -1.194348 0.000000
vt 2.000000 -1.313782 0.000000
vt 0.000000 -1.313782 0.000000
vt 2.000000 -1.433217 0.000000
vt 0.000000 -1.433217 0.000000
vt 2.000000 -1.552652 0.000000
vt 0.000000 -1.552652 0.000000
vt 2.000000 -1.672087 0.000000
vt 0.000000 -1.672087 0.000000
vt -8.920164 8.800000 0.000000
vt -11.067506 8.800000 0.000000
vt -8.920164 4.529176 0.000000
vt -11.067506 4.529176 0.000000
vn 0.000000 0.000000 100.000000
vn 0.000000 0.000000 100.000000
vn 0.000000 0.000000 100.000000
vn 0.000000 0.000000 100.000000
vn 100.000000 0.000000 0.000000
vn 100.000000 0.000000 0.000000
vn 100.000000 0.000000 0.000000
vn 100.000000 0.000000 0.000000
vn 0.000000 100.000000 0.000000
vn 0.000000 100.000000 0.000000
vn 0.000000 100.000000 0.000000
vn 0.000000 100.000000 0.000000
vn -100.000000 0.000000 0.000000
vn -100.000000 0.000000 0.000000
vn -100.000000 0.000000 0.000000
vn -100.000000 0.000000 0.000000
vn 0.000000 -100.000000 0.000000
vn 0.000000 -100.000000 0.000000
vn 0.000000 -100.000000 0.000000
vn 0.000000 -100.000000 0.000000
vn 0.000000 -100.000000 0.000000
vn 0.000000 -100.000000 0.000000
vn 0.000000 -100.000000 0.000000
vn 0.000000 -100.000000 0.000000
vn 0.000000 -100.000000 0.000000
vn 0.000000 -100.000000 0.000000
vn 0.000000 -100.000000 0.000000
vn 0.000000 -100.000000 0.000000
vn 0.000000 -100.000000 0.000000
vn 0.000000 -100.000000 0.000000
vn 0.000000 -100.000000 0.000000
vn 0.000000 -100.000000 0.000000
vn 0.000000 -100.000000 0.000000
vn 0.000000 -100.000000 0.000000
vn 0.000000 -100.000000 0.000000
vn 0.000000 -100.000000 0.000000
vn 0.000000 -100.000000 0.000000
vn 0.000000 -100.000000 0.000000
vn 0.000000 -100.000000 0.000000
vn 0.000000 -100.000000 0.000000
vn 0.000000 -100.000000 0.000000
vn 0.000000 -100.000000 0.000000
vn 0.000000 -100.000000 0.000000
vn 0.000000 -100.000000 0.000000
vn 0.000000 -100.000000 0.000000
vn 0.000000 -100.000000 0.000000
vn 0.000000 -100.000000 0.000000
vn 0.000000 -100.000000 0.000000
vn 0.000000 -100.000000 0.000000
vn 0.000000 -100.000000 0.000000
vn 0.000000 -100.000000 0.000000
vn 0.000000 -100.000000 0.000000
vn 0.000000 -100.000000 0.000000
vn 0.000000 -100.000000 0.000000
vn 0.000000 -100.000000 0.000000
vn 0.000000 -100.000000 0.000000
vn 0.000000 -100.000000 0.000000
vn 0.000000 -100.000000 0.000000
vn 0.000000 -100.000000 0.000000
vn 0.000000 -100.000000 0.000000
vn 0.000000 -100.000000 0.000000
vn 0.000000 -100.000000 0.000000
vn 0.000000 -100.000000 0.000000
vn 0.000000 -100.000000 0.000000
vn 0.000000 -100.000000 0.000000
vn 0.000000 -100.000000 0.000000
vn 0.000000 -100.000000 0.000000
vn 0.000000 -100.000000 0.000000
vn 0.000000 -100.000000 0.000000
vn 0.000000 -100.000000 0.000000
vn 0.000000 -100.000000 0.000000
vn 0.000000 -100.000000 0.000000
vn 0.000000 -100.000000 0.000000
vn 0.000000 -100.000000 0.000000
vn 0.000000 -100.000000 0.000000
vn 0.000000 -100.000000 0.000000
vn 0.000000 -100.000000 0.000000
vn 0.000000 -100.000000 0.000000
vn 0.000000 -100.000000 0.000000
vn 0.000000 -100.000000 0.000000
vn 0.000000 -100.000000 0.000000
vn 0.000000 -100.000000 0.000000
vn 0.000000 -100.000000 0.000000
vn 0.000000 -100.000000 0.000000
vn 98.078528 0.000000 -19.509032
vn 98.078528 0.000000 -19.509032
vn 100.000000 0.000000 -0.000000
vn 100.000000 0.000000 -0.000000
vn 98.078528 -0.000000 19.509032
vn 98.078528 -0.000000 19.509032
vn 92.387953 -0.000000 38.268343
vn 92.387953 -0.000000 38.268343
vn 83.146961 -0.000000 55.557023
vn 83.146961 -0.000000 55.557023
vn 70.710678 -0.000000 70.710678
vn 70.710678 -0.000000 70.710678
vn 55.557023 -0.000000 83.146961
vn 55.557023 -0.000000 83.146961
vn 38.268343 -0.000000 92.387953
vn 38.268343 -0.000000 92.387953
vn 19.509032 -0.000000 98.078528
vn 19.509032 -0.000000 98.078528
vn -0.000000 0.000000 100.000000
vn -0.000000 0.000000 100.000000
vn -19.509032 0.000000 98.078528
vn -19.509032 0.000000 98.078528
vn -38.268343 0.000000 92.387953
vn -38.268343 0.000000 92.387953
vn -55.557023 0.000000 83.146961
vn -55.557023 0.000000 83.146961
vn -70.710678 0.000000 70.710678
vn -70.710678 0.000000 70.710678
vn -83.146961 0.000000 55.557023
vn -83.146961 0.000000 55.557023
vn -92.387953 0.000000 38.268343
vn -92.387953 0.000000 38.268343
vn -98.078528 0.000000 19.509032
vn -98.078528 0.000000 19.509032
vn -100.000000 0.000000 0.000000
vn -100.000000 0.000000 0.000000
vn -98.078528 0.000000 -19.509032
vn -98.078528 0.000000 -19.509032
vn -92.387953 0.000000 -38.268343
vn -92.387953 0.000000 -38.268343
vn -83.146961 0.000000 -55.557023
vn -83.146961 0.000000 -55.557023
vn -70.710678 0.000000 -70.710678
vn -70.710678 0.000000 -70.710678
vn -55.557023 0.000000 -83.146961
vn -55.557023 0.000000 -83.146961
vn -38.268343 0.000000 -92.387953
vn -38.268343 0.000000 -92.387953
vn -19.509032 0.000000 -98.078528
vn -19.509032 0.000000 -98.078528
vn -0.000000 0.000000 -100.000000
vn -0.000000 0.000000 -100.000000
vn 19.509032 0.000000 -98.078528
vn 19.509032 0.000000 -98.078528
vn 38.268343 0.000000 -92.387953
vn 38.268343 0.000000 -92.387953
vn 55.557023 0.000000 -83.146961
vn 55.557023 0.000000 -83.146961
vn 70.710678 0.000000 -70.710678
vn 70.710678 0.000000 -70.710678
vn 83.146961 0.000000 -55.557023
vn 83.146961 0.000000 -55.557023
vn 92.387953 0.000000 -38.268343
vn 92.387953 0.000000 -38.268343
vn 0.000000 0.000000 -100.000000
vn 0.000000 0.000000 -100.000000
vn 0.000000 0.000000 -100.000000
vn 0.000000 0.000000 -100.000000
usemtl Stahl_-_satiniert
f 2/1/1 3/2/2 1/3/3
f 1/3/3 3/2/2 4/4/4
f 5/5/5 6/6/6 1/7/7
f 1/7/7 6/6/6 2/8/8
f 6/9/9 7/10/10 2/11/11
f 2/11/11 7/10/10 3/12/12
f 4/13/13 3/14/14 8/15/15
f 8/15/15 3/14/14 7/16/16
f 40/17/17 9/18/18 4/19/19
f 4/19/19 9/18/18 10/20/20
f 4/19/19 10/20/20 11/21/21
f 11/21/21 12/22/22 4/19/19
f 4/19/19 12/22/22 13/23/23
f 4/19/19 13/23/23 14/24/24
f 14/24/24 15/25/25 4/19/19
f 4/19/19 15/25/25 16/26/26
f 4/19/19 16/26/26 17/27/27
f 4/19/19 17/27/27 1/28/28
f 1/28/28 17/27/27 18/29/29
f 1/28/28 18/29/29 19/30/30
f 19/30/30 20/31/31 1/28/28
f 1/28/28 20/31/31 21/32/32
f 1/28/28 21/32/32 22/33/33
f 22/33/33 23/34/34 1/28/28
f 1/28/28 23/34/34 24/35/35
f 1/28/28 24/35/35 25/36/36
f 25/36/36 26/37/37 1/28/28
f 1/28/28 26/37/37 5/38/38
f 5/38/38 26/37/37 27/39/39
f 5/38/38 27/39/39 28/40/40
f 28/40/40 29/41/41 5/38/38
f 5/38/38 29/41/41 30/42/42
f 5/38/38 30/42/42 31/43/43
f 31/43/43 32/44/44 5/38/38
f 5/38/38 32/44/44 33/45/45
f 5/38/38 33/45/45 8/46/46
f 8/46/46 33/45/45 34/47/47
f 8/46/46 34/47/47 35/48/48
f 35/48/48 36/49/49 8/46/46
f 8/46/46 36/49/49 37/50/50
f 8/46/46 37/50/50 38/51/51
f 38/51/51 39/52/52 8/46/46
f 8/46/46 39/52/52 40/17/17
f 8/46/46 40/17/17 4/19/19
f 42/53/53 56/54/54 41/55/55
f 41/55/55 56/54/54 57/56/56
f 41/55/55 57/56/56 72/57/57
f 72/57/57 57/56/56 58/58/58
f 72/57/57 58/58/58 71/59/59
f 71/59/59 58/58/58 59/60/60
f 71/59/59 59/60/60 70/61/61
f 70/61/61 59/60/60 60/62/62
f 70/61/61 60/62/62 69/63/63
f 69/63/63 60/62/62 61/64/64
f 69/63/63 61/64/64 68/65/65
f 68/65/65 61/64/64 62/66/66
f 68/65/65 62/66/66 67/67/67
f 67/67/67 62/66/66 63/68/68
f 67/67/67 63/68/68 66/69/69
f 66/69/69 63/68/68 64/70/70
f 66/69/69 64/70/70 65/71/71
f 56/54/54 42/53/53 55/72/72
f 55/72/72 42/53/53 43/73/73
f 55/72/72 43/73/73 54/74/74
f 54/74/74 43/73/73 44/75/75
f 54/74/74 44/75/75 53/76/76
f 53/76/76 44/75/75 45/77/77
f 53/76/76 45/77/77 52/78/78
f 52/78/78 45/77/77 46/79/79
f 52/78/78 46/79/79 51/80/80
f 51/80/80 46/79/79 47/81/81
f 51/80/80 47/81/81 50/82/82
f 50/82/82 47/81/81 48/83/83
f 50/82/82 48/83/83 49/84/84
f 72/85/85 10/86/86 41/87/87
f 41/87/87 10/86/86 9/88/88
f 41/89/87 9/90/88 42/91/89
f 42/91/89 9/90/88 40/92/90
f 42/91/89 40/92/90 43/93/91
f 43/93/91 40/92/90 39/94/92
f 43/93/91 39/94/92 44/95/93
f 44/95/93 39/94/92 38/96/94
f 44/95/93 38/96/94 45/97/95
f 45/97/95 38/96/94 37/98/96
f 45/97/95 37/98/96 46/99/97
f 46/99/97 37/98/96 36/100/98
f 46/99/97 36/100/98 47/101/99
f 47/101/99 36/100/98 35/102/100
f 47/101/99 35/102/100 48/103/101
f 48/103/101 35/102/100 34/104/102
f 48/103/101 34/104/102 49/105/103
f 49/105/103 34/104/102 33/106/104
f 49/105/103 33/106/104 50/107/105
f 50/107/105 33/106/104 32/108/106
f 50/107/105 32/108/106 51/109/107
f 51/109/107 32/108/106 31/110/108
f 51/109/107 31/110/108 52/111/109
f 52/111/109 31/110/108 30/112/110
f 52/111/109 30/112/110 53/113/111
f 53/113/111 30/112/110 29/114/112
f 53/113/111 29/114/112 54/115/113
f 54/115/113 29/114/112 28/116/114
f 54/115/113 28/116/114 55/117/115
f 55/117/115 28/116/114 27/118/116
f 55/117/115 27/118/116 56/119/117
f 56/119/117 27/118/116 26/120/118
f 56/119/117 26/120/118 57/121/119
f 57/121/119 26/120/118 25/122/120
f 57/121/119 25/122/120 58/123/121
f 58/123/121 25/122/120 24/124/122
f 58/123/121 24/124/122 59/125/123
f 59/125/123 24/124/122 23/126/124
f 59/125/123 23/126/124 60/127/125
f 60/127/125 23/126/124 22/128/126
f 60/127/125 22/128/126 61/129/127
f 61/129/127 22/128/126 21/130/128
f 61/129/127 21/130/128 62/131/129
f 62/131/129 21/130/128 20/132/130
f 62/131/129 20/132/130 63/133/131
f 63/133/131 20/132/130 19/134/132
f 63/133/131 19/134/132 64/135/133
f 64/135/133 19/134/132 18/136/134
f 64/135/133 18/136/134 65/137/135
f 65/137/135 18/136/134 17/138/136
f 65/137/135 17/138/136 66/139/137
f 66/139/137 17/138/136 16/140/138
f 66/139/137 16/140/138 67/141/139
f 67/141/139 16/140/138 15/142/140
f 67/141/139 15/142/140 68/143/141
f 68/143/141 15/142/140 14/144/142
f 68/143/141 14/144/142 69/145/143
f 69/145/143 14/144/142 13/146/144
f 69/145/143 13/146/144 70/147/145
f 70/147/145 13/146/144 12/148/146
f 70/147/145 12/148/146 71/149/147
f 71/149/147 12/148/146 11/150/148
f 71/149/147 11/150/148 72/85/85
f 72/85/85 11/150/148 10/86/86
f 7/151/149 6/152/150 8/153/151
f 8/153/151 6/152/150 5/154/152
# 72 vertices
# 154 texture params
# 152 normals
# 140 facets

# 1 groups
